<svg xmlns="http://www.w3.org/2000/svg" viewBox="0 0 32 32" fill="none">
  <defs>
    <linearGradient id="a" x1="0" y1="0" x2="1" y2="1">
      <stop offset="0%" stop-color="#f6a623"/>
      <stop offset="100%" stop-color="#c06a10"/>
    </linearGradient>
    <linearGradient id="g" x1=".3" y1="0" x2=".7" y2=".6">
      <stop offset="0%" stop-color="#fff" stop-opacity=".3"/>
      <stop offset="100%" stop-color="#fff" stop-opacity="0"/>
    </linearGradient>
  </defs>
  <polygon points="16,2 29,9 29,23 16,30 3,23 3,9" fill="url(#a)"/>
  <polygon points="16,2 29,9 22.5,5.5 16,4 9.5,5.5 3,9" fill="url(#g)" opacity=".5"/>
  <circle cx="16" cy="16" r="2" fill="#fff"/>
  <circle cx="16" cy="11" r="1.2" fill="#ffffffcc"/>
  <circle cx="20.5" cy="13.5" r="1.2" fill="#ffffffcc"/>
  <circle cx="20.5" cy="18.5" r="1.2" fill="#ffffffcc"/>
  <circle cx="16" cy="21" r="1.2" fill="#ffffffcc"/>
  <circle cx="11.5" cy="18.5" r="1.2" fill="#ffffffcc"/>
  <circle cx="11.5" cy="13.5" r="1.2" fill="#ffffffcc"/>
  <g stroke="#fff" stroke-width=".8" opacity=".5">
    <line x1="16" y1="16" x2="16" y2="11"/>
    <line x1="16" y1="16" x2="20.5" y2="13.5"/>
    <line x1="16" y1="16" x2="20.5" y2="18.5"/>
    <line x1="16" y1="16" x2="16" y2="21"/>
    <line x1="16" y1="16" x2="11.5" y2="18.5"/>
    <line x1="16" y1="16" x2="11.5" y2="13.5"/>
  </g>
  <g stroke="#fff" stroke-width=".5" opacity=".25">
    <line x1="16" y1="11" x2="20.5" y2="13.5"/>
    <line x1="20.5" y1="13.5" x2="20.5" y2="18.5"/>
    <line x1="20.5" y1="18.5" x2="16" y2="21"/>
    <line x1="16" y1="21" x2="11.5" y2="18.5"/>
    <line x1="11.5" y1="18.5" x2="11.5" y2="13.5"/>
    <line x1="11.5" y1="13.5" x2="16" y2="11"/>
  </g>
</svg>
