<svg width="1200" height="920" viewBox="0 0 1200 920" fill="none" xmlns="http://www.w3.org/2000/svg">
  <defs>
    <linearGradient id="bg" x1="0" y1="0" x2="1200" y2="920" gradientUnits="userSpaceOnUse">
      <stop stop-color="#F8FAFC"/>
      <stop offset="1" stop-color="#EEF2FF"/>
    </linearGradient>
    <linearGradient id="panel" x1="0" y1="0" x2="320" y2="140" gradientUnits="userSpaceOnUse">
      <stop stop-color="#FFFFFF"/>
      <stop offset="1" stop-color="#F8FAFC"/>
    </linearGradient>
    <marker id="arrow" viewBox="0 0 10 10" refX="8" refY="5" markerWidth="7" markerHeight="7" orient="auto-start-reverse">
      <path d="M 0 0 L 10 5 L 0 10 z" fill="#475569"/>
    </marker>
    <style>
      .title { font: 700 34px ui-sans-serif, -apple-system, BlinkMacSystemFont, "Segoe UI", sans-serif; fill: #0F172A; }
      .section { font: 700 18px ui-sans-serif, -apple-system, BlinkMacSystemFont, "Segoe UI", sans-serif; fill: #1E293B; letter-spacing: 0.4px; }
      .label { font: 700 20px ui-sans-serif, -apple-system, BlinkMacSystemFont, "Segoe UI", sans-serif; fill: #0F172A; }
      .body { font: 500 16px ui-sans-serif, -apple-system, BlinkMacSystemFont, "Segoe UI", sans-serif; fill: #334155; }
      .small { font: 600 14px ui-sans-serif, -apple-system, BlinkMacSystemFont, "Segoe UI", sans-serif; fill: #475569; }
      .chip { font: 700 15px ui-sans-serif, -apple-system, BlinkMacSystemFont, "Segoe UI", sans-serif; fill: #1D4ED8; }
      .card { fill: url(#panel); stroke: #CBD5E1; stroke-width: 1.5; rx: 22; }
    </style>
  </defs>

  <rect width="1200" height="920" fill="url(#bg)"/>

  <text x="64" y="64" class="title">Unified Memory Map</text>
  <text x="64" y="92" class="body">L0-L3 layered memory, domain scopes, and the memory evolution pipeline in one static diagram.</text>

  <text x="64" y="142" class="section">INPUT</text>
  <rect x="64" y="162" width="260" height="88" class="card"/>
  <text x="94" y="200" class="label">Events</text>
  <text x="94" y="228" class="body">text, image, audio, video, json</text>

  <text x="418" y="142" class="section">L0-L3 LAYERED MEMORY</text>
  <rect x="418" y="162" width="360" height="104" class="card"/>
  <text x="448" y="202" class="label">L0 Raw Events</text>
  <text x="448" y="230" class="body">append-only event log</text>
  <text x="448" y="250" class="small">source material for consolidation</text>

  <rect x="418" y="304" width="360" height="104" class="card"/>
  <text x="448" y="344" class="label">L1 Stable Memory</text>
  <text x="448" y="372" class="body">facts and procedures</text>
  <text x="448" y="392" class="small">primary retrieval layer</text>

  <rect x="418" y="446" width="360" height="104" class="card"/>
  <text x="448" y="486" class="label">L2 Insights</text>
  <text x="448" y="514" class="body">topics, clusters, reflections</text>
  <text x="448" y="534" class="small">long-horizon abstraction</text>

  <rect x="418" y="588" width="360" height="104" class="card"/>
  <text x="448" y="628" class="label">L3 Goals and Tasks</text>
  <text x="448" y="656" class="body">goals, milestones, dependencies</text>
  <text x="448" y="676" class="small">planning and execution coordination</text>

  <text x="860" y="142" class="section">MEMORY EVOLUTION</text>
  <rect x="860" y="162" width="276" height="54" class="card"/>
  <text x="892" y="197" class="chip">Denoise</text>
  <rect x="860" y="232" width="276" height="54" class="card"/>
  <text x="892" y="267" class="chip">Compress</text>
  <rect x="860" y="302" width="276" height="54" class="card"/>
  <text x="892" y="337" class="chip">Align</text>
  <rect x="860" y="372" width="276" height="54" class="card"/>
  <text x="892" y="407" class="chip">Associate</text>
  <rect x="860" y="442" width="276" height="54" class="card"/>
  <text x="892" y="477" class="chip">Reflect</text>
  <rect x="860" y="512" width="276" height="54" class="card"/>
  <text x="892" y="547" class="chip">Forget</text>

  <text x="64" y="760" class="section">MEMORY DOMAINS</text>
  <rect x="64" y="784" width="240" height="84" class="card"/>
  <text x="94" y="826" class="label">Agent</text>
  <text x="94" y="852" class="body">local native memory</text>

  <rect x="334" y="784" width="240" height="84" class="card"/>
  <text x="364" y="826" class="label">User</text>
  <text x="364" y="852" class="body">local native memory</text>

  <rect x="604" y="784" width="240" height="84" class="card"/>
  <text x="634" y="826" class="label">App</text>
  <text x="634" y="852" class="body">projected shared memory</text>

  <rect x="874" y="784" width="240" height="84" class="card"/>
  <text x="904" y="826" class="label">Organization</text>
  <text x="904" y="852" class="body">projected shared memory</text>

  <line x1="324" y1="206" x2="404" y2="206" stroke="#475569" stroke-width="3" marker-end="url(#arrow)"/>

  <line x1="598" y1="266" x2="598" y2="290" stroke="#475569" stroke-width="3" marker-end="url(#arrow)"/>
  <line x1="598" y1="408" x2="598" y2="432" stroke="#475569" stroke-width="3" marker-end="url(#arrow)"/>
  <line x1="598" y1="550" x2="598" y2="574" stroke="#475569" stroke-width="3" marker-end="url(#arrow)"/>

  <line x1="778" y1="213" x2="846" y2="189" stroke="#475569" stroke-width="3" marker-end="url(#arrow)"/>
  <line x1="778" y1="213" x2="846" y2="259" stroke="#475569" stroke-width="3" marker-end="url(#arrow)"/>
  <line x1="778" y1="356" x2="846" y2="329" stroke="#475569" stroke-width="3" marker-end="url(#arrow)"/>
  <line x1="778" y1="356" x2="846" y2="399" stroke="#475569" stroke-width="3" marker-end="url(#arrow)"/>
  <line x1="778" y1="498" x2="846" y2="469" stroke="#475569" stroke-width="3" marker-end="url(#arrow)"/>
  <line x1="998" y1="566" x2="998" y2="726" stroke="#475569" stroke-width="3" stroke-dasharray="8 8" marker-end="url(#arrow)"/>

  <line x1="536" y1="408" x2="184" y2="770" stroke="#475569" stroke-width="3" stroke-dasharray="8 8" marker-end="url(#arrow)"/>
  <line x1="600" y1="408" x2="454" y2="770" stroke="#475569" stroke-width="3" stroke-dasharray="8 8" marker-end="url(#arrow)"/>
  <line x1="660" y1="550" x2="724" y2="770" stroke="#475569" stroke-width="3" stroke-dasharray="8 8" marker-end="url(#arrow)"/>
  <line x1="718" y1="550" x2="994" y2="770" stroke="#475569" stroke-width="3" stroke-dasharray="8 8" marker-end="url(#arrow)"/>

  <text x="902" y="590" class="small">runs across all tiers</text>
  <text x="64" y="900" class="small">Static fallback for environments where Mermaid rendering is unavailable.</text>
</svg>
